<svg version="1" xmlns="http://www.w3.org/2000/svg" width="682.667" height="682.667" viewBox="0 0 512.000000 512.000000"><path d="M234 59.1c-57.6 6.5-107.4 36.4-141.7 85.3C52.7 200.7 47.1 279.5 78 343.6c11.2 23.3 31.2 48.4 51.5 64.9 21.1 17.1 39 27.1 62.6 35 41.6 13.8 84 14 125.6.7 9.9-3.1 11.6-3.4 12.3-2.1 2.6 4.5 13.4 18.7 19.4 25.4 8.3 9.2 25.6 23.2 34.6 27.9 19.9 10.5 39 3.9 44.7-15.3 2-7 2-21.9-.1-31.6-.8-3.8-1.3-7.1-1.2-7.3.2-.1 2.8 2 5.9 4.8 3 2.7 6.9 5.6 8.7 6.4 6.3 2.6 13.8-1.1 16.1-8.1 1.8-5.6.3-10-5.3-15.9-2.8-3-4.9-5.6-4.7-5.8.2-.1 4.7.1 9.9.6 11.5 1 17.1.4 27.3-2.9 13.8-4.6 21-13.2 21-25.3-.1-11.3-4.1-19.8-16.3-34-10.2-11.7-33.3-30.1-44.4-35.1-3.2-1.5-3.2-1.9.8-15.4 6.3-21 9.1-51.8 6.7-74-3.7-34.3-15.3-66.4-33.4-92.1-15.4-22-30.4-36.9-52.9-52.6-24.8-17.4-57.1-29.2-90-32.7-11.1-1.3-31.8-1.2-42.8 0zm39.8 113.5c32.4 6.6 59 33.2 65.6 65.6 2 9.9 2 25.7 0 35.6-1.6 8-5.9 19.2-9.5 25.1l-2.1 3.4-35.6-35.5c-19.7-19.5-36.8-36.3-38.2-37.2-5.2-3.4-15.1-1-18.4 4.4-1.8 3.2-2.1 8.6-.6 12.5.5 1.4 17.5 19.1 37.7 39.3l36.6 36.6-3.4 2.9c-4.4 3.7-19.8 11.1-27.4 13.2-9.4 2.6-29.4 3.1-39.6 1-33-6.6-59.6-33-66.3-65.7-2-9.9-2-25.7 0-35.6 6.6-32 33-58.7 64.9-65.5 9.4-2.1 26.7-2.1 36.3-.1z"/></svg>